<svg xmlns="http://www.w3.org/2000/svg" width="320" height="320"><path fill="#9F49FB" d="M199.465 54.238c2.95 2.431 4.316 4.104 5.535 7.762.1 2.598.143 5.17.14 7.768l.01 2.422q.01 4.032.011 8.063l.015 5.77q.019 7.848.024 15.695l.012 9.8q.02 15.323.027 30.647.007 17.703.05 35.406.033 13.674.034 27.35 0 8.172.025 16.344.023 7.684.01 15.37-.002 2.821.013 5.644c.013 2.566.007 5.132-.004 7.699l.025 2.26c-.056 5.817-1.588 8.907-5.58 13.012-7.579 4.716-16.692 2.16-25 .875-7.221-1.09-14.384-2.151-21.675-2.633-4.442-.3-8.548-.927-12.862-1.988-4.597-1.018-9.29-1.458-13.963-2.004l-6.43-.781-3.092-.375c-5.61-.692-11.2-1.505-16.79-2.344l-4.855-.684q-2.573-.376-5.145-.754l-2.43-.333c-5.861-.884-10.57-2.23-14.882-6.542-2.973-4.733-2.814-9.839-2.822-15.308l-.013-3.989.002-4.34-.01-4.6q-.014-6.232-.012-12.465-.002-3.899-.006-7.796-.013-13.613-.012-27.225-.001-12.667-.026-25.336-.019-10.894-.018-21.787.002-6.498-.013-12.997-.014-6.116-.003-12.23.003-2.238-.007-4.474c-.074-19.537-.074-19.537 4.877-25.077 5.956-3.64 12.763-4.386 19.588-5.268l2.36-.316q3.826-.51 7.654-1.01l5.38-.717q7.068-.94 14.138-1.872c5.69-.75 11.378-1.508 17.067-2.264q6.653-.885 13.305-1.764c8.36-1.105 16.715-2.239 25.06-3.464 14.6-2.007 14.6-2.007 20.288.85M170 140v40c2.884 1.442 5.417 1.094 8.625 1.063l3.602-.028L185 181c1.661-3.323 1.142-7.04 1.133-10.691l.003-2.608q0-2.73-.006-5.46c-.005-2.796 0-5.591.007-8.387q0-2.647-.004-5.295l.006-2.55c.358-3.813.358-3.813-1.139-7.009-2.144-.1-4.291-.13-6.437-.125l-3.56-.008c-2.927-.075-2.927-.075-5.003 1.133"/><path fill="#D65AFB" d="M217 75c24 0 24 0 30 4 3.194 4.791 3.125 9.647 3.134 15.286l.013 3.764-.002 4.09.01 4.338q.013 5.877.012 11.752l.006 7.35q.014 12.833.012 25.666.001 11.943.026 23.888.019 10.27.018 20.54-.002 6.127.013 12.255.014 5.764.003 11.528-.003 2.11.007 4.219c.07 17.44.07 17.44-3.496 21.87C238.94 252.77 226.518 250 217 250z"/></svg>